<svg xmlns="http://www.w3.org/2000/svg" id="Layer_1" viewBox="91.7 90.01 859.92 86.07"><defs><style>.cls-1{fill:#5c5a59;}.cls-2{fill:#00b1e4;fill-rule:evenodd;}</style></defs><g><g><path d="m175.36,174.84h48.55v-16.89h-30.75v-17.34h30.75v-16.89h-30.75v-16.61h30.75v-16.89h-48.55v84.62h0v-.02Zm-43.92-31.66c-4.49-11.63-20.5-52.96-20.5-52.96h-19.24l34.08,84.62h11.2l33.96-84.62h-18.99s-16.02,41.33-20.5,52.96h-.02Zm191.38-52.96l-30.51,81.16-18.86-26.51c8.35-2.09,19.79-8.81,19.79-26.39,0-8.14-3.06-15.9-8.18-20.81-5.43-5.15-12.51-7.43-23.04-7.43h-27.39v84.62h17.84v-29.71l21.12,29.71h36.05s3.96-10.53,6.59-17.53h27.81c2.63,7,6.59,17.53,6.59,17.53h19.03l-32.13-84.62h-14.71v-.02Zm-65.75,40.34h-4.61v-23.47h8.83c10.42,0,14.12,5.88,14.12,11.36,0,3.01,0,12.1-18.34,12.1h0v.02Zm65.09,10.44c2.94-8.26,6.71-18.89,8.07-22.94l7.97,22.94s-16.04,0-16.04,0Z"/><path d="m405.28,106.77c10.49,0,16.42,6.76,18.67,9.32l1.11,1.28h19.82l-2.63-4.82c-2.04-3.56-5.12-8.92-12.36-14.12-9.87-7.12-20.64-7.9-24.8-7.9-23.07,0-41.86,18.77-41.86,41.86s18.74,42.47,41.74,42.47c15.45,0,29.24-8.09,36.87-21.62l2.63-4.61h-20.26l-.93,1.09c-4.79,5.63-11.42,8.88-18.18,8.88-13.38,0-24.7-11.94-24.7-26.12s11.17-25.72,24.89-25.72h0v.02Z"/><path d="m667.03,107.1v-16.89h-48.57v84.62h48.57v-16.89h-30.75v-17.34h30.75v-16.89h-30.75v-16.61h30.75v-.02Z"/><path d="m568.2,90.21h-4.61v16.89h4.53c20.07,0,25.42,16.13,25.42,25.63,0,22.76-17.91,25.23-25.63,25.23h-4.3v16.89h4.2c13.91,0,24.35-3.89,32.79-12.24,6.45-6.34,10.77-18.32,10.77-29.88,0-9.25-3.23-19.25-8.62-26.77-7.59-10.44-19.22-15.71-34.53-15.71h0s0-.03,0-.03Z"/></g><g><path class="cls-2" d="m540.94,174.66v-67.6h-13.29v-16.85h31.08v84.45h-17.78Z"/><path class="cls-2" d="m490.51,90.25c-23.32,0-42.29,18.93-42.29,42.19s18.99,42.19,42.29,42.19,42.28-18.82,42.28-41.98-18.56-42.38-42.28-42.38h0v-.02Zm0,68.08c-17.32,0-25.1-15.16-25.1-25.91s7.78-25.93,25.1-25.93c18.27,0,25.1,16.11,25.1,26.25s-7.81,25.6-25.1,25.6h0v-.02Z"/></g></g><g><path class="cls-1" d="m709.28,90.01h22.84c21.51,0,45.45,11.36,45.45,41.94s-23.69,42.67-46.65,42.67h-21.63v-84.61Zm20.67,10.39h-9.07v63.82h3.99c24.17,0,40.37-7.61,40.37-31.18,0-21.39-13.05-32.63-35.29-32.63Z"/><path class="cls-1" d="m845.5,144.4c0,17.65-13.17,31.67-30.82,31.67s-30.82-14.02-30.82-31.67,13.17-31.67,30.82-31.67,30.82,14.02,30.82,31.67Zm-30.82-21.51c-11.36,0-19.58,9.79-19.58,21.51s8.22,21.51,19.58,21.51,19.58-9.79,19.58-21.51-8.22-21.51-19.58-21.51Z"/><path class="cls-1" d="m902.06,170.14c-4.47,3.63-11.24,5.92-18.49,5.92-17.28,0-30.94-12.57-30.94-31.67,0-17.65,13.9-31.67,31.55-31.67,6.41,0,12.21,1.93,17.04,5.2l-5.2,9.07c-3.38-2.54-7.98-4.11-12.33-4.11-10.88,0-19.82,9.55-19.82,21.51,0,13.05,9.43,21.51,19.94,21.51,3.99,0,9.55-1.81,12.81-4.23l5.44,8.46Z"/><path class="cls-1" d="m943.4,126.39c-2.78-2.42-7.86-4.47-11.97-4.47-5.56,0-9.06,3.26-9.06,7.98s5.8,6.89,11.6,9.19c7.86,3.02,17.65,7.49,17.65,18.01,0,13.54-10.51,18.98-21.88,18.98-8.22,0-16.08-3.26-20.79-9.43l7.74-6.16c3.99,4.23,8.34,6.41,13.17,6.41,5.92,0,10.88-3.02,10.88-9.31,0-4.71-5.56-6.89-11.6-9.31-7.98-3.14-17.28-6.65-17.28-17.53,0-12.21,9.43-18.01,19.46-18.01,6.89,0,13.78,2.3,18.61,6.65l-6.53,7.01Z"/></g></svg>