<?xml version="1.0" encoding="utf-8"?>
<!-- Generator: Adobe Illustrator 26.5.2, SVG Export Plug-In . SVG Version: 6.00 Build 0)  -->
<svg version="1.1" id="Layer_1" xmlns="http://www.w3.org/2000/svg" xmlns:xlink="http://www.w3.org/1999/xlink" x="0px" y="0px"
	 viewBox="0 0 860.8 92.8" style="enable-background:new 0 0 860.8 92.8;" xml:space="preserve">
<style type="text/css">
	.st0{fill:#D3D1CF;}
	.st1{fill:#D5D3D1;}
	.st2{fill:#FFFFFF;}
	.st3{fill-rule:evenodd;clip-rule:evenodd;fill:#00B1E4;}
</style>
<g>
	<path class="st0" d="M617.6,3.9h22.8c21.5,0,45.5,11.4,45.5,41.9s-23.7,42.7-46.7,42.7h-21.6L617.6,3.9L617.6,3.9z M638.2,14.3
		h-9.1v63.8h4c24.2,0,40.4-7.6,40.4-31.2C673.5,25.5,660.5,14.3,638.2,14.3L638.2,14.3z"/>
	<path class="st0" d="M753.8,58.3c0,17.6-13.2,31.7-30.8,31.7s-30.8-14-30.8-31.7s13.2-31.7,30.8-31.7S753.8,40.6,753.8,58.3z
		 M723,36.8c-11.4,0-19.6,9.8-19.6,21.5s8.2,21.5,19.6,21.5s19.6-9.8,19.6-21.5S734.3,36.8,723,36.8z"/>
	<path class="st0" d="M810.4,84c-4.5,3.6-11.2,5.9-18.5,5.9c-17.3,0-30.9-12.6-30.9-31.7c0-17.7,13.9-31.7,31.5-31.7
		c6.4,0,12.2,1.9,17,5.2l-5.2,9.1c-3.4-2.5-8-4.1-12.3-4.1c-10.9,0-19.8,9.6-19.8,21.5c0,13.1,9.4,21.5,19.9,21.5
		c4,0,9.5-1.8,12.8-4.2L810.4,84L810.4,84z"/>
	<path class="st1" d="M851.7,40.3c-2.8-2.4-7.9-4.5-12-4.5c-5.6,0-9.1,3.3-9.1,8c0,4.7,5.8,6.9,11.6,9.2c7.9,3,17.7,7.5,17.7,18
		c0,13.5-10.5,19-21.9,19c-8.2,0-16.1-3.3-20.8-9.4l7.7-6.2c4,4.2,8.3,6.4,13.2,6.4c5.9,0,10.9-3,10.9-9.3c0-4.7-5.6-6.9-11.6-9.3
		c-8-3.1-17.3-6.6-17.3-17.5c0-12.2,9.4-18,19.5-18c6.9,0,13.8,2.3,18.6,6.7L851.7,40.3L851.7,40.3z"/>
</g>
<g>
	<g>
		<path class="st2" d="M83.7,88.7h48.5V71.8h-30.7V54.5h30.7V37.6h-30.7V21h30.7V4.1H83.7V88.7L83.7,88.7L83.7,88.7L83.7,88.7z
			 M39.7,57.1c-4.5-11.6-20.5-53-20.5-53H0l34.1,84.6h11.2l34-84.6h-19C60.2,4.1,44.2,45.4,39.7,57.1L39.7,57.1L39.7,57.1z
			 M231.1,4.1l-30.5,81.2l-18.9-26.5c8.4-2.1,19.8-8.8,19.8-26.4c0-8.1-3.1-15.9-8.2-20.8c-5.4-5.2-12.5-7.4-23-7.4h-27.4v84.6h17.8
			V59l21.1,29.7h36c0,0,4-10.5,6.6-17.5h27.8c2.6,7,6.6,17.5,6.6,17.5h19L245.8,4.1L231.1,4.1L231.1,4.1L231.1,4.1z M165.4,44.5
			h-4.6V21h8.8c10.4,0,14.1,5.9,14.1,11.4C183.7,35.4,183.7,44.4,165.4,44.5L165.4,44.5L165.4,44.5L165.4,44.5z M230.5,54.9
			c2.9-8.3,6.7-18.9,8.1-22.9l8,22.9H230.5z"/>
		<path class="st2" d="M313.6,20.7c10.5,0,16.4,6.8,18.7,9.3l1.1,1.3h19.8l-2.6-4.8c-2-3.6-5.1-8.9-12.4-14.1
			c-9.9-7.1-20.6-7.9-24.8-7.9c-23.1,0-41.9,18.8-41.9,41.9s18.7,42.5,41.7,42.5c15.5,0,29.2-8.1,36.9-21.6l2.6-4.6h-20.3l-0.9,1.1
			c-4.8,5.6-11.4,8.9-18.2,8.9c-13.4,0-24.7-11.9-24.7-26.1S299.9,20.7,313.6,20.7L313.6,20.7L313.6,20.7L313.6,20.7z"/>
		<path class="st2" d="M575.3,21V4.1h-48.6v84.6h48.6V71.8h-30.8V54.5h30.8V37.6h-30.8V21L575.3,21L575.3,21L575.3,21z"/>
		<path class="st2" d="M476.5,4.1h-4.6V21h4.5c20.1,0,25.4,16.1,25.4,25.6c0,22.8-17.9,25.2-25.6,25.2h-4.3v16.9h4.2
			c13.9,0,24.3-3.9,32.8-12.2c6.5-6.3,10.8-18.3,10.8-29.9c0-9.2-3.2-19.2-8.6-26.8C503.5,9.4,491.8,4.1,476.5,4.1L476.5,4.1
			L476.5,4.1L476.5,4.1z"/>
	</g>
	<g>
		<path class="st3" d="M449.2,88.6V21H436V4.1H467v84.4H449.2L449.2,88.6z"/>
		<path class="st3" d="M398.8,4.1c-23.3,0-42.3,18.9-42.3,42.2s19,42.2,42.3,42.2c23.3,0,42.3-18.8,42.3-42S422.5,4.2,398.8,4.1
			L398.8,4.1L398.8,4.1L398.8,4.1z M398.8,72.2c-17.3,0-25.1-15.2-25.1-25.9s7.8-25.9,25.1-25.9c18.3,0,25.1,16.1,25.1,26.2
			S416.1,72.2,398.8,72.2L398.8,72.2L398.8,72.2L398.8,72.2z"/>
	</g>
</g>
</svg>
